<?xml version="1.0" standalone="no"?><!DOCTYPE svg PUBLIC "-//W3C//DTD SVG 1.1//EN" "http://www.w3.org/Graphics/SVG/1.1/DTD/svg11.dtd"><svg t="1635231018519" class="icon" viewBox="0 0 1024 1024" version="1.1" xmlns="http://www.w3.org/2000/svg" p-id="1827" xmlns:xlink="http://www.w3.org/1999/xlink" width="200" height="200"><defs><style type="text/css"></style></defs><path d="M512.79616 806.37312c-145.024 0-263.04-118.016-263.04-263.04s118.016-263.04 263.04-263.04 263.04 118.016 263.04 263.04c0.128 145.024-117.888 263.04-263.04 263.04z m0-487.808c-123.904 0-224.64 100.864-224.64 224.64 0 123.904 100.864 224.64 224.64 224.64s224.64-100.864 224.64-224.64c0.128-123.776-100.736-224.64-224.64-224.64z" fill="#687CFF" p-id="1828"></path><path d="M497.43616 388.70912m-20.352 0a20.352 20.352 0 1 0 40.704 0 20.352 20.352 0 1 0-40.704 0Z" fill="#FFFFFF" p-id="1829"></path><path d="M497.43616 428.26112c-21.888 0-39.552-17.792-39.552-39.552s17.664-39.68 39.552-39.68c21.888 0 39.552 17.792 39.552 39.552s-17.792 39.68-39.552 39.68z m0-40.832c-0.64 0-1.152 0.512-1.152 1.152s0.512 1.152 1.152 1.152 1.152-0.512 1.152-1.152-0.512-1.152-1.152-1.152z" fill="#687CFF" p-id="1830"></path><path d="M441.11616 511.46112m-42.88 0a42.88 42.88 0 1 0 85.76 0 42.88 42.88 0 1 0-85.76 0Z" fill="#FFFFFF" p-id="1831"></path><path d="M441.11616 573.54112c-34.304 0-62.08-27.904-62.08-62.08s27.904-62.08 62.08-62.08 62.08 27.904 62.08 62.08-27.904 62.08-62.08 62.08z m0-85.76c-13.056 0-23.68 10.624-23.68 23.68s10.624 23.68 23.68 23.68 23.68-10.624 23.68-23.68-10.624-23.68-23.68-23.68z" fill="#687CFF" p-id="1832"></path><path d="M575.64416 485.47712m-19.072 0a19.072 19.072 0 1 0 38.144 0 19.072 19.072 0 1 0-38.144 0Z" fill="#FFFFFF" p-id="1833"></path><path d="M575.64416 523.87712c-21.12 0-38.272-17.152-38.272-38.272s17.152-38.272 38.272-38.272 38.272 17.152 38.272 38.272-17.024 38.272-38.272 38.272z m0.128-38.4z" fill="#687CFF" p-id="1834"></path><path d="M336.79616 763.10912c-56.192 0-98.176-18.176-120.192-52.48-29.952-46.72-16.512-115.456 36.992-188.416l30.976 22.784c-43.008 58.624-56.32 112.768-35.712 145.024 17.92 27.904 61.312 39.808 119.424 32.768 148.48-26.368 282.368-112.64 367.616-236.928 28.928-48.512 35.712-91.904 18.304-119.168-20.224-31.616-73.472-42.496-142.592-29.184l-7.296-37.76c86.4-16.768 152.96 0.128 182.272 46.208 25.984 40.576 19.584 97.408-18.048 160l-0.64 1.024c-45.696 66.688-103.296 122.752-171.136 166.528s-142.72 73.088-222.208 87.168l-1.024 0.128c-12.8 1.536-25.088 2.304-36.736 2.304z" fill="#687CFF" p-id="1835"></path></svg>