<?xml version="1.0" standalone="no"?><!DOCTYPE svg PUBLIC "-//W3C//DTD SVG 1.1//EN" "http://www.w3.org/Graphics/SVG/1.1/DTD/svg11.dtd"><svg t="1655559328305" class="icon" viewBox="0 0 1024 1024" version="1.1" xmlns="http://www.w3.org/2000/svg" p-id="3975" xmlns:xlink="http://www.w3.org/1999/xlink" width="200" height="200"><defs><style type="text/css">@font-face { font-family: feedback-iconfont; src: url("//at.alicdn.com/t/font_1031158_u69w8yhxdu.woff2?t=1630033759944") format("woff2"), url("//at.alicdn.com/t/font_1031158_u69w8yhxdu.woff?t=1630033759944") format("woff"), url("//at.alicdn.com/t/font_1031158_u69w8yhxdu.ttf?t=1630033759944") format("truetype"); }
</style></defs><path d="M912.128 720a16 16 0 0 1 15.744 13.12l0.256 2.88v80.224a48 48 0 0 1-43.392 47.808l-4.608 0.192H144.448a48 48 0 0 1-47.776-43.36l-0.224-4.64V736a16 16 0 0 1 31.744-2.88l0.256 2.88v80.224a16 16 0 0 0 13.12 15.744l2.88 0.256h735.68a16 16 0 0 0 15.744-13.12l0.256-2.88V736a16 16 0 0 1 16-16z" fill="#cdcdcd" p-id="3976"></path><path d="M123.264 211.936V173.12H89.504v38.816h33.76z m0 236.064V248.864H89.504V448h33.76z m82.752 0v-108.736c0-25.504 5.216-42.816 15.68-51.936A54.688 54.688 0 0 1 258.88 273.6c8.992 0 16.864 2.016 23.552 6.08 6.688 4.064 11.328 9.504 13.952 16.32 2.624 6.816 3.936 17.088 3.936 30.848V448h33.76v-122.432c0-15.616-0.64-26.56-1.888-32.832-1.984-9.6-5.504-17.92-10.496-24.928-4.992-7.008-12.512-12.64-22.592-16.96a83.136 83.136 0 0 0-33.088-6.464c-27.616 0-48.768 10.944-63.36 32.8v-28.32h-30.4V448h33.76z m230.496 2.624c7.52 0 16-0.992 25.504-3.008l-4.864-29.792a109.76 109.76 0 0 1-14.816 1.28 22.464 22.464 0 0 1-11.52-2.432 14.08 14.08 0 0 1-5.824-6.56c-1.184-2.752-1.792-8.928-1.792-18.56V275.136h33.92v-26.24h-33.92V179.296l-33.536 20.224v49.312h-24.768v26.24h24.768v114.56c0 20.288 1.344 33.568 4.096 39.872 2.752 6.304 7.52 11.392 14.272 15.264 6.72 3.872 16.256 5.824 28.48 5.824z" fill="#cdcdcd" p-id="3977"></path><path d="M544 544a32 32 0 1 1 0 64 32 32 0 0 1 0-64z m128 0a32 32 0 1 1 0 64 32 32 0 0 1 0-64z m128 0a32 32 0 1 1 0 64 32 32 0 0 1 0-64z" fill="#cdcdcd" p-id="3978"></path><path d="M328.256 512.128l-13.504 47.552h64.928l13.44-47.552h32l-13.44 47.552h49.92l-9.024 32-49.952-0.032-27.2 96h50.112l-9.024 32h-50.144l-13.696 48.32h-32l13.696-48.32h-64.96l-13.632 48.32h-32l13.664-48.32H180l8.96-32h57.568l27.168-96H216.064l8.96-31.936 57.728-0.032 13.504-47.552h32z m42.368 79.52h-64.96l-27.136 96h64.896l27.2-96z" fill="#cdcdcd" p-id="3979"></path></svg>