<?xml version="1.0" standalone="no"?><!DOCTYPE svg PUBLIC "-//W3C//DTD SVG 1.1//EN" "http://www.w3.org/Graphics/SVG/1.1/DTD/svg11.dtd"><svg t="1636879109636" class="icon" viewBox="0 0 1024 1024" version="1.1" xmlns="http://www.w3.org/2000/svg" p-id="7233" xmlns:xlink="http://www.w3.org/1999/xlink" width="200" height="200"><defs><style type="text/css"></style></defs><path d="M960 938.666667a21.333333 21.333333 0 0 1 21.333333 21.333333v42.666667a21.333333 21.333333 0 0 1-21.333333 21.333333h-896a21.333333 21.333333 0 0 1-21.333333-21.333333v-42.666667a21.333333 21.333333 0 0 1 21.333333-21.333333h896zM422.101333 718.933333a42.666667 42.666667 0 0 1-23.168 11.904l-203.733333 33.962667 33.962667-203.733333a42.666667 42.666667 0 0 1 11.946666-23.168L708.096 70.826667a42.666667 42.666667 0 0 1 60.330667 0L889.173333 191.573333a42.666667 42.666667 0 0 1 0 60.330667l-90.496 90.496-60.373333 60.330667-316.16 316.16z m195.456-436.906666l-306.474666 306.56-12.032 72.362666 72.405333-12.074666 306.474667-306.474667-60.373334-60.373333z m120.746667-120.661334l-60.373333 60.330667 60.330666 60.330667 60.373334-60.288-60.373334-60.373334z" p-id="7234"></path></svg>