<?xml version="1.0" standalone="no"?><!DOCTYPE svg PUBLIC "-//W3C//DTD SVG 1.1//EN" "http://www.w3.org/Graphics/SVG/1.1/DTD/svg11.dtd"><svg t="1636984351265" class="icon" viewBox="0 0 1024 1024" version="1.1" xmlns="http://www.w3.org/2000/svg" p-id="5517" xmlns:xlink="http://www.w3.org/1999/xlink" width="200" height="200"><defs><style type="text/css"></style></defs><path d="M703.473371 603.516343a58.177829 58.177829 0 0 0-31.1296-8.704c-9.815771 0-19.631543 2.4576-28.511085 7.431314A271.008914 271.008914 0 0 1 512 636.2112c-46.3872 0-91.984457-11.746743-131.8912-33.967543a58.455771 58.455771 0 0 0-59.5968 1.565257C228.0448 661.898971 160.914286 792.897829 160.914286 916.0704c0 32.314514 26.199771 57.943771 58.514285 57.943771h585.142858c32.314514 0 58.514286-25.629257 58.514285-57.943771 0-123.172571-67.130514-254.434743-159.612343-312.554057zM219.428571 915.499886c0-102.4 52.618971-212.714057 132.213029-262.714515 47.133257 26.258286 101.888 41.3696 160.3584 41.3696s113.225143-15.111314 160.343771-41.398857C751.952457 702.785829 804.571429 813.099886 804.571429 915.499886H219.428571zM259.072 528.003657c10.24 10.898286 23.522743 16.896 37.405257 16.896 17.993143 0 34.362514-10.108343 43.7248-27.0336l42.422857-76.551314c32.885029 44.280686 76.609829 76.4928 129.111772 76.4928 52.662857 0 96.504686-32.402286 129.418971-76.887772l42.642286 76.946286c9.376914 16.910629 25.731657 27.018971 43.7248 27.0336 13.867886 0 27.150629-5.997714 37.405257-16.896l56.085943-59.655314c12.565943-13.370514 17.144686-29.944686 12.536686-45.450972-4.608-15.506286-17.481143-26.887314-35.357258-31.232l-114.5856-27.779657c16.705829-41.428114 25.614629-83.807086 25.614629-116.692114 0-108.895086-88.590629-197.485714-197.485714-197.485714s-197.485714 88.590629-197.485715 197.485714c0 32.928914 8.938057 75.351771 25.658515 116.809143l-114.146743 27.662628c-17.846857 4.344686-30.72 15.725714-35.328 31.232-4.593371 15.520914-0.029257 32.080457 12.536686 45.450972l56.100571 59.655314z m504.919771-84.421486l-34.260114 36.439772-28.657371-51.697372 62.917485 15.2576z m-252.255085 15.725715c-62.902857 0-115.989943-90.901943-133.12-165.961143 80.003657-24.034743 124.064914-67.364571 142.599314-89.965714 52.4288 47.147886 103.0144 60.445257 128.073143 64.219428-9.201371 78.058057-67.203657 191.707429-137.552457 191.707429z m0-351.085715c73.640229 0 133.763657 57.344 138.517943 129.799315-23.873829-4.286171-72.279771-18.6368-120.656458-66.998857a14.628571 14.628571 0 0 0-22.849828 2.779428c-0.380343 0.643657-37.931886 60.576914-132.988343 90.4192a170.071771 170.071771 0 0 1-0.980114-17.027657c-0.014629-76.741486 62.215314-138.971429 138.9568-138.971429zM322.984229 428.251429l-28.701258 51.770514-34.289371-36.4544 62.990629-15.316114z" fill="" p-id="5518"></path><path d="M510.171429 723.529143c-35.167086 0-58.514286 44.280686-58.514286 73.567086 0 32.021943 26.243657 58.090057 58.514286 58.090057s58.514286-26.053486 58.514285-58.090057c0-29.2864-23.3472-73.567086-58.514285-73.567086z m0 102.4c-16.135314 0-29.257143-12.917029-29.257143-28.832914 0-17.890743 15.418514-44.309943 29.257143-44.309943s29.257143 26.433829 29.257142 44.309943c0 15.915886-13.121829 28.832914-29.257142 28.832914z" fill="" p-id="5519"></path><path d="M411.882057 732.218514m-20.567771 0a20.567771 20.567771 0 1 0 41.135543 0 20.567771 20.567771 0 1 0-41.135543 0Z" fill="" p-id="5520"></path><path d="M353.367771 702.961371m-20.567771 0a20.567771 20.567771 0 1 0 41.135543 0 20.567771 20.567771 0 1 0-41.135543 0Z" fill="" p-id="5521"></path><path d="M602.053486 732.218514m-20.567772 0a20.567771 20.567771 0 1 0 41.135543 0 20.567771 20.567771 0 1 0-41.135543 0Z" fill="" p-id="5522"></path><path d="M660.567771 702.961371m-20.567771 0a20.567771 20.567771 0 1 0 41.135543 0 20.567771 20.567771 0 1 0-41.135543 0Z" fill="" p-id="5523"></path></svg>