<?xml version="1.0" standalone="no"?><!DOCTYPE svg PUBLIC "-//W3C//DTD SVG 1.1//EN" "http://www.w3.org/Graphics/SVG/1.1/DTD/svg11.dtd"><svg t="1635228587599" class="icon" viewBox="0 0 1024 1024" version="1.1" xmlns="http://www.w3.org/2000/svg" p-id="2336" xmlns:xlink="http://www.w3.org/1999/xlink" width="200" height="200"><defs><style type="text/css"></style></defs><path d="M487.58 636.38m-387.62 0a387.62 387.62 0 1 0 775.24 0 387.62 387.62 0 1 0-775.24 0Z" fill="#FC9F65" p-id="2337"></path><path d="M487.58 636.38m-387.62 0a387.62 387.62 0 1 0 775.24 0 387.62 387.62 0 1 0-775.24 0Z" opacity=".1" p-id="2338"></path><path d="M335.118 279.91C196.844 339.13 99.96 476.434 99.96 636.378 99.96 850.456 273.506 1024 487.582 1024c81.536 0 157.174-25.196 219.602-68.196-365.504-74.946-408.61-498.1-372.066-675.894z" opacity=".1" p-id="2339"></path><path d="M672.82 429.96m-15.742 0a15.742 15.742 0 1 0 31.484 0 15.742 15.742 0 1 0-31.484 0Z" opacity=".1" p-id="2340"></path><path d="M269.12 762.54m-15.742 0a15.742 15.742 0 1 0 31.484 0 15.742 15.742 0 1 0-31.484 0Z" opacity=".1" p-id="2341"></path><path d="M213.84 651.96m-15.742 0a15.742 15.742 0 1 0 31.484 0 15.742 15.742 0 1 0-31.484 0Z" opacity=".1" p-id="2342"></path><path d="M697.84 620.64m-15.742 0a15.742 15.742 0 1 0 31.484 0 15.742 15.742 0 1 0-31.484 0Z" opacity=".1" p-id="2343"></path><path d="M580.82 487.18m-15.742 0a15.742 15.742 0 1 0 31.484 0 15.742 15.742 0 1 0-31.484 0Z" opacity=".1" p-id="2344"></path><path d="M596.56 356.38m-15.742 0a15.742 15.742 0 1 0 31.484 0 15.742 15.742 0 1 0-31.484 0Z" opacity=".1" p-id="2345"></path><path d="M450.624 220.766c0 84.922-46.032 138.246-77.632 164.846-16.774 14.12-41.4 14.12-58.174 0-31.6-26.602-77.632-79.926-77.632-164.846 0-92.916 55.108-173.19 86.122-211.01 10.666-13.008 30.526-13.008 41.192 0 31.016 37.82 86.124 118.094 86.124 211.01z" fill="#54B88B" p-id="2346"></path><path d="M450.624 220.766c0 84.922-46.032 138.246-77.632 164.846-16.774 14.12-41.4 14.12-58.174 0-31.6-26.602-77.632-79.926-77.632-164.846 0-92.916 55.108-173.19 86.122-211.01 10.666-13.008 30.526-13.008 41.192 0 31.016 37.82 86.124 118.094 86.124 211.01z" opacity=".1" p-id="2347"></path><path d="M343.906 318.858a15 15 0 0 1-15-15V92.346c0-8.286 6.716-15 15-15s15 6.714 15 15v211.512a15 15 0 0 1-15 15z" opacity=".1" p-id="2348"></path><path d="M220.766 289.484c84.922 0 138.246 46.032 164.846 77.632 14.12 16.774 14.12 41.4 0 58.174-26.602 31.6-79.926 77.632-164.846 77.632-92.916 0-173.19-55.108-211.01-86.122-13.008-10.666-13.008-30.526 0-41.192 37.82-31.016 118.094-86.124 211.01-86.124z" fill="#54B88B" p-id="2349"></path><path d="M303.858 411.204H92.346c-8.284 0-15-6.714-15-15s6.716-15 15-15h211.512a15 15 0 0 1 0 30z" opacity=".1" p-id="2350"></path><path d="M910.49 910.49c134.034-134.034 149.36-341.804 46.01-492.72-11.846-17.298-36.476-19.624-51.3-4.8L412.97 905.2c-14.824 14.824-12.498 39.456 4.8 51.3 150.916 103.35 358.686 88.024 492.72-46.01z" fill="#FC9F65" p-id="2351"></path><path d="M910.49 910.49c134.034-134.034 149.36-341.804 46.01-492.72-11.846-17.298-36.476-19.624-51.3-4.8L412.97 905.2c-14.824 14.824-12.498 39.456 4.8 51.3 150.916 103.35 358.686 88.024 492.72-46.01z" fill="#FC9F65" p-id="2352"></path><path d="M957.34 581.314c-9.266-54.224-32.312-106.55-69.136-151.348l-144.984 144.984c-10.862 10.862-3.17 29.432 12.192 29.432h182.302c12.25 0 21.688-10.992 19.626-23.068zM429.966 888.204c44.798 36.824 97.124 59.87 151.348 69.136 12.076 2.064 23.068-7.374 23.068-19.626v-182.3c0-15.36-18.572-23.052-29.432-12.192l-144.984 144.982z m396.852-16.068l-128.916-128.916c-10.862-10.862-29.432-3.17-29.432 12.192v182.3c0 12.252 10.992 21.69 23.068 19.626 46.904-8.014 92.386-26.34 132.806-54.974 10.016-7.094 11.154-21.55 2.474-30.228z m-83.598-174.234l128.916 128.916c8.678 8.678 23.134 7.542 30.228-2.474 28.634-40.42 46.96-85.902 54.974-132.806 2.064-12.076-7.376-23.068-19.628-23.068h-182.302c-15.356 0-23.05 18.572-12.188 29.432z" fill="#FFFFFF" opacity=".6" p-id="2353"></path><path d="M663.238 654.932L412.97 905.2c-14.824 14.824-12.498 39.456 4.8 51.302 141.654 97.006 333.392 89.452 467.234-22.678-145.706 25.208-237.168-172.96-221.766-278.892z" opacity=".05" p-id="2354"></path></svg>