<?xml version="1.0" standalone="no"?><!DOCTYPE svg PUBLIC "-//W3C//DTD SVG 1.1//EN" "http://www.w3.org/Graphics/SVG/1.1/DTD/svg11.dtd"><svg t="1635652574273" class="icon" viewBox="0 0 1024 1024" version="1.1" xmlns="http://www.w3.org/2000/svg" p-id="5063" xmlns:xlink="http://www.w3.org/1999/xlink" width="200" height="200"><defs><style type="text/css"></style></defs><path d="M38.689083 328.522589c-17.512827 0-31.716289 14.174809-31.716289 31.688659V663.807171c0 17.513851 14.203462 31.702986 31.716289 31.702986 17.500548 0 31.68866-14.189135 31.68866-31.702986V360.210225c0-17.513851-14.188112-31.687636-31.68866-31.687636zM678.092497 58.839989c-9.35607-5.762226-21.036063-6.291274-30.856713-1.373274L149.310309 306.880729c-10.723204 5.36109-17.500548 16.337051-17.500548 28.341432v353.552608a31.701963 31.701963 0 0 0 17.500548 28.348595l497.925475 249.406851a31.763361 31.763361 0 0 0 14.188112 3.353368 31.805316 31.805316 0 0 0 16.668601-4.720502c9.35607-5.776552 15.033361-16.006524 15.033361-26.981461V85.822473A31.704009 31.704009 0 0 0 678.092497 58.839989z m-48.370564 827.997346l-53.556669-26.812616V436.620346c0-11.687157-9.454307-21.148627-21.134301-21.148627-11.666691 0-21.122021 9.46147-21.122021 21.148627v402.227094l-338.694232-169.643363V354.800016L533.908942 185.156653v133.157453c0 11.687157 9.454307 21.148627 21.122021 21.148627 11.679994 0 21.134301-9.46147 21.134301-21.148627v-154.334732l53.556669-26.813639v749.6716zM781.668274 186.728449c-11.074198-3.670592-23.037646 2.366903-26.686749 13.455426-3.634776 11.082384 2.367926 23.037646 13.470775 26.679586 123.400248 40.621082 206.304257 155.207611 206.304258 285.138586 0 129.938138-82.905033 244.546157-206.304258 285.138585-11.089547 3.6358-17.105552 15.598225-13.470775 26.672423 2.930743 8.890466 11.187784 14.540129 20.07825 14.540129 2.184754 0 4.43807-0.336667 6.608499-1.084703 140.771859-46.299396 235.358932-177.026502 235.358932-325.267458 0-148.218443-94.587073-278.952712-235.358932-325.272574z" p-id="5064"></path><path d="M765.19717 708.951257c-10.328209 5.438862-14.273046 18.233233-8.835208 28.546093 3.790319 7.172339 11.130479 11.271695 18.711116 11.271695 3.324715 0 6.707759-0.774641 9.849303-2.450813 87.245889-46.060967 141.43496-135.855906 141.43496-234.317209 0-98.468465-54.189071-188.227589-141.43496-234.309022-10.328209-5.446025-23.107231-1.479698-28.560419 8.827022-5.437838 10.313883-1.493001 23.107231 8.835208 28.560419 73.365791 38.733086 118.904873 114.171068 118.904873 196.921581 0 82.751537-45.539081 158.203845-118.904873 196.950234z" p-id="5065"></path></svg>