<?xml version="1.0" standalone="no"?><!DOCTYPE svg PUBLIC "-//W3C//DTD SVG 1.1//EN" "http://www.w3.org/Graphics/SVG/1.1/DTD/svg11.dtd"><svg t="1635651679272" class="icon" viewBox="0 0 1024 1024" version="1.1" xmlns="http://www.w3.org/2000/svg" p-id="4251" xmlns:xlink="http://www.w3.org/1999/xlink" width="200" height="200"><defs><style type="text/css"></style></defs><path d="M852.053348 20.780279c-85.937255 0-155.604964 67.505463-155.604964 150.774959 0 9.474792 0.911766 18.739806 2.638083 27.731598L282.756387 402.084635c-28.469402-30.458709-69.607334-49.593512-115.357308-49.593512-85.941348 0-155.598824 67.505463-155.598824 150.775982s69.657476 150.775982 155.598824 150.775982c44.652989 0 84.912925-18.23327 113.293299-47.436382l246.369154 159.152766c-11.072173 20.732184-17.33276 44.264133-17.33276 69.217455 0 83.265402 69.662593 150.777005 155.598824 150.777005 85.940324 0 155.602917-67.511603 155.602917-150.777005 0-83.272565-69.661569-150.779052-155.602917-150.779052-44.658106 0-84.912925 18.23327-113.294322 47.436382L305.66412 572.482513c11.076266-20.727067 17.337877-44.261063 17.337877-69.215408 0-24.243147-5.91164-47.14167-16.404622-67.439972l406.259724-196.825784c25.551956 49.412386 78.275761 83.33601 139.194202 83.33601 85.939301 0 155.604964-67.506487 155.604964-150.780075C1007.656265 88.286766 937.991626 20.780279 852.053348 20.780279L852.053348 20.780279zM665.327596 743.046167c56.333006 0 95.79374 41.617863 95.79374 91.929736 0 55.473429-44.903699 91.932806-95.79374 91.932806-51.007721 0-95.7876-38.054711-95.7876-91.932806C569.538973 779.994684 613.541139 743.046167 665.327596 743.046167L665.327596 743.046167zM167.399079 594.006735c-54.769394 0-94.597495-39.743166-94.597495-90.741677 0-51.144844 38.58683-90.735537 94.597495-90.735537 55.4458 0 94.592378 39.898709 94.592378 90.735537C261.991458 552.090067 218.188836 594.006735 167.399079 594.006735L167.399079 594.006735zM852.053348 263.492136c-52.863998 0-95.7876-38.980803-95.7876-91.936899 0-47.454802 33.361829-91.930759 95.7876-91.930759 57.70833 0 95.791693 40.889269 95.791693 91.930759C947.846064 220.328058 904.381134 263.492136 852.053348 263.492136L852.053348 263.492136z" p-id="4252"></path></svg>