<?xml version="1.0" standalone="no"?><!DOCTYPE svg PUBLIC "-//W3C//DTD SVG 1.1//EN" "http://www.w3.org/Graphics/SVG/1.1/DTD/svg11.dtd"><svg t="1635548035313" class="icon" viewBox="0 0 1024 1024" version="1.1" xmlns="http://www.w3.org/2000/svg" p-id="3401" xmlns:xlink="http://www.w3.org/1999/xlink" width="200" height="200"><defs><style type="text/css"></style></defs><path d="M697.344 469.333333l10.154667 30.421334c12.885333 3.669333 25.130667 8.832 36.522666 15.317333l25.301334-12.629333 50.901333 50.901333-12.629333 25.301333c6.485333 11.392 11.648 23.637333 15.317333 36.522667l30.421333 10.154667v72.021333l-30.421333 10.154667c-4.053333 14.250667-9.984 27.733333-17.450667 40.192l14.762667 29.525333-50.901333 50.901333-32.896-16.469333a166.826667 166.826667 0 0 1-28.928 11.264l-10.154667 30.421333h-72.021333l-10.154667-30.421333a166.826667 166.826667 0 0 1-28.885333-11.221333l-32.938667 16.426666-50.901333-50.901333 14.762666-29.525333a167.082667 167.082667 0 0 1-17.450666-40.192L469.333333 697.344v-72.021333l30.421334-10.154667c3.669333-12.885333 8.832-25.130667 15.317333-36.522667l-12.629333-25.301333 50.901333-50.901333 25.301333 12.629333c11.392-6.485333 23.637333-11.648 36.522667-15.317333l10.154667-30.421334h72.021333zM469.333333 512v42.666667a256 256 0 0 0-256 256H170.666667a298.666667 298.666667 0 0 1 298.666666-298.666667z m208.64 0h-33.28l-7.68 23.125333-10.837333 3.114667a126.976 126.976 0 0 0-22.528 8.789333l-5.290667 2.858667-9.898666 5.589333-18.944-9.472-23.466667 23.509334 9.429333 18.944-5.589333 9.898666c-3.968 6.997333-7.253333 14.378667-9.856 22.016l-1.792 5.802667-3.114667 10.794667-23.125333 7.722666v33.28l23.125333 7.722667 3.114667 10.837333c2.432 8.576 5.802667 16.896 9.984 24.746667l3.285333 5.802667 6.016 10.069333-11.52 22.954667 23.552 23.509333 25.045334-12.501333 9.557333 4.778666c5.290667 2.645333 10.752 4.906667 16.341333 6.826667l5.674667 1.706667 10.794667 3.114666 7.722666 23.125334h33.28l7.722667-23.125334 10.837333-3.114666c5.674667-1.621333 11.264-3.626667 16.64-6.016l5.333334-2.56 9.557333-4.736 25.045333 12.501333 23.509334-23.466667-11.477334-23.04 6.016-10.026666c4.608-7.637333 8.362667-15.744 11.264-24.149334l2.005334-6.4 3.114666-10.837333 23.125334-7.765333v-33.237334l-23.125334-7.68-3.114666-10.837333a126.976 126.976 0 0 0-8.789334-22.528l-2.858666-5.290667-5.589334-9.898666 9.429334-18.944-23.509334-23.466667-18.901333 9.429333-9.898667-5.589333a127.189333 127.189333 0 0 0-22.016-9.856l-5.76-1.792-10.837333-3.114667L677.973333 512z m-16.64 64a85.333333 85.333333 0 1 1 0 170.666667 85.333333 85.333333 0 0 1 0-170.666667z m0 42.666667a42.666667 42.666667 0 1 0 0 85.333333 42.666667 42.666667 0 0 0 0-85.333333zM469.333333 170.666667a149.333333 149.333333 0 1 1 0 298.666666 149.333333 149.333333 0 0 1 0-298.666666z m0 42.666666a106.666667 106.666667 0 1 0 0 213.333334 106.666667 106.666667 0 0 0 0-213.333334z" fill="#999999" p-id="3402"></path></svg>